<mxfile host="app.diagrams.net" modified="2023-02-05T08:47:12.384Z" agent="5.0 (X11; Linux x86_64) AppleWebKit/537.36 (KHTML, like Gecko) Chrome/109.0.0.0 Safari/537.36" etag="AuKzVMY04ePrQkjU5jr3" version="20.8.16" type="github">
  <diagram id="C5RBs43oDa-KdzZeNtuy" name="Page-1">
    <mxGraphModel dx="1641" dy="463" grid="1" gridSize="10" guides="1" tooltips="1" connect="1" arrows="1" fold="1" page="1" pageScale="1" pageWidth="827" pageHeight="1169" math="0" shadow="0">
      <root>
        <mxCell id="WIyWlLk6GJQsqaUBKTNV-0" />
        <mxCell id="WIyWlLk6GJQsqaUBKTNV-1" parent="WIyWlLk6GJQsqaUBKTNV-0" />
        <mxCell id="_7BD3cjRigsqIXlE5Apz-3" value="" style="edgeStyle=orthogonalEdgeStyle;rounded=0;orthogonalLoop=1;jettySize=auto;html=1;labelBackgroundColor=none;fontColor=default;" edge="1" parent="WIyWlLk6GJQsqaUBKTNV-1" source="_7BD3cjRigsqIXlE5Apz-1" target="_7BD3cjRigsqIXlE5Apz-2">
          <mxGeometry relative="1" as="geometry" />
        </mxCell>
        <mxCell id="_7BD3cjRigsqIXlE5Apz-1" value="start" style="ellipse;whiteSpace=wrap;html=1;labelBackgroundColor=none;" vertex="1" parent="WIyWlLk6GJQsqaUBKTNV-1">
          <mxGeometry x="110" y="30" width="90" height="50" as="geometry" />
        </mxCell>
        <mxCell id="_7BD3cjRigsqIXlE5Apz-5" value="" style="edgeStyle=orthogonalEdgeStyle;rounded=0;orthogonalLoop=1;jettySize=auto;html=1;labelBackgroundColor=none;fontColor=default;" edge="1" parent="WIyWlLk6GJQsqaUBKTNV-1" source="_7BD3cjRigsqIXlE5Apz-2" target="_7BD3cjRigsqIXlE5Apz-4">
          <mxGeometry relative="1" as="geometry" />
        </mxCell>
        <mxCell id="_7BD3cjRigsqIXlE5Apz-2" value="ara [10] = {18, 16, 15, 19, 20, 12, 13, 11, 14,&lt;br&gt;17};&lt;br&gt;int i = 0;" style="whiteSpace=wrap;html=1;labelBackgroundColor=none;" vertex="1" parent="WIyWlLk6GJQsqaUBKTNV-1">
          <mxGeometry x="95" y="120" width="120" height="60" as="geometry" />
        </mxCell>
        <mxCell id="_7BD3cjRigsqIXlE5Apz-19" value="" style="edgeStyle=orthogonalEdgeStyle;rounded=0;hachureGap=4;orthogonalLoop=1;jettySize=auto;html=1;fontFamily=Architects Daughter;fontSource=https%3A%2F%2Ffonts.googleapis.com%2Fcss%3Ffamily%3DArchitects%2BDaughter;fontSize=16;labelBackgroundColor=none;fontColor=default;" edge="1" parent="WIyWlLk6GJQsqaUBKTNV-1" source="_7BD3cjRigsqIXlE5Apz-4" target="_7BD3cjRigsqIXlE5Apz-8">
          <mxGeometry relative="1" as="geometry" />
        </mxCell>
        <mxCell id="_7BD3cjRigsqIXlE5Apz-4" value="min = ara[0]" style="whiteSpace=wrap;html=1;labelBackgroundColor=none;" vertex="1" parent="WIyWlLk6GJQsqaUBKTNV-1">
          <mxGeometry x="100" y="220" width="90" height="50" as="geometry" />
        </mxCell>
        <mxCell id="_7BD3cjRigsqIXlE5Apz-13" value="" style="edgeStyle=orthogonalEdgeStyle;rounded=0;orthogonalLoop=1;jettySize=auto;html=1;labelBackgroundColor=none;fontColor=default;" edge="1" parent="WIyWlLk6GJQsqaUBKTNV-1" source="_7BD3cjRigsqIXlE5Apz-8" target="_7BD3cjRigsqIXlE5Apz-12">
          <mxGeometry relative="1" as="geometry" />
        </mxCell>
        <mxCell id="_7BD3cjRigsqIXlE5Apz-21" value="yes" style="edgeStyle=orthogonalEdgeStyle;rounded=0;sketch=0;orthogonalLoop=1;jettySize=auto;html=1;exitX=1;exitY=0.5;exitDx=0;exitDy=0;" edge="1" parent="WIyWlLk6GJQsqaUBKTNV-1" source="_7BD3cjRigsqIXlE5Apz-8" target="_7BD3cjRigsqIXlE5Apz-11">
          <mxGeometry relative="1" as="geometry" />
        </mxCell>
        <mxCell id="_7BD3cjRigsqIXlE5Apz-8" value="i &amp;lt; 10" style="rhombus;whiteSpace=wrap;html=1;labelBackgroundColor=none;" vertex="1" parent="WIyWlLk6GJQsqaUBKTNV-1">
          <mxGeometry x="80" y="310" width="110" height="80" as="geometry" />
        </mxCell>
        <mxCell id="_7BD3cjRigsqIXlE5Apz-16" value="" style="edgeStyle=orthogonalEdgeStyle;rounded=0;orthogonalLoop=1;jettySize=auto;html=1;labelBackgroundColor=none;fontColor=default;" edge="1" parent="WIyWlLk6GJQsqaUBKTNV-1" source="_7BD3cjRigsqIXlE5Apz-11" target="_7BD3cjRigsqIXlE5Apz-15">
          <mxGeometry relative="1" as="geometry">
            <Array as="points">
              <mxPoint x="300" y="415" />
            </Array>
          </mxGeometry>
        </mxCell>
        <mxCell id="_7BD3cjRigsqIXlE5Apz-11" value="print min" style="shape=parallelogram;perimeter=parallelogramPerimeter;whiteSpace=wrap;html=1;fixedSize=1;labelBackgroundColor=none;" vertex="1" parent="WIyWlLk6GJQsqaUBKTNV-1">
          <mxGeometry x="300" y="320" width="120" height="60" as="geometry" />
        </mxCell>
        <mxCell id="_7BD3cjRigsqIXlE5Apz-12" value="end" style="ellipse;whiteSpace=wrap;html=1;labelBackgroundColor=none;" vertex="1" parent="WIyWlLk6GJQsqaUBKTNV-1">
          <mxGeometry x="-70" y="325" width="80" height="50" as="geometry" />
        </mxCell>
        <mxCell id="_7BD3cjRigsqIXlE5Apz-18" style="edgeStyle=orthogonalEdgeStyle;rounded=0;orthogonalLoop=1;jettySize=auto;html=1;exitX=0;exitY=0.5;exitDx=0;exitDy=0;entryX=0.5;entryY=1;entryDx=0;entryDy=0;labelBackgroundColor=none;fontColor=default;" edge="1" parent="WIyWlLk6GJQsqaUBKTNV-1" source="_7BD3cjRigsqIXlE5Apz-15" target="_7BD3cjRigsqIXlE5Apz-8">
          <mxGeometry relative="1" as="geometry" />
        </mxCell>
        <mxCell id="_7BD3cjRigsqIXlE5Apz-15" value="i++" style="whiteSpace=wrap;html=1;labelBackgroundColor=none;" vertex="1" parent="WIyWlLk6GJQsqaUBKTNV-1">
          <mxGeometry x="180" y="430" width="60" height="30" as="geometry" />
        </mxCell>
      </root>
    </mxGraphModel>
  </diagram>
</mxfile>
